<svg width="210" height="243" viewBox="0 0 210 243" fill="none" xmlns="http://www.w3.org/2000/svg">
<path d="M10.1578 186.97C4.17651 183.473 0.500001 177.065 0.500001 170.136L0.500002 72.8637C0.500002 65.9351 4.17651 59.5268 10.1578 56.0298L95.1578 6.33353C101.238 2.77878 108.762 2.77878 114.842 6.33353L199.842 56.0298C205.823 59.5268 209.5 65.9351 209.5 72.8637L209.5 170.136C209.5 177.065 205.823 183.473 199.842 186.97L114.842 236.666C108.762 240.221 101.238 240.221 95.1578 236.666L10.1578 186.97Z" fill="url(#paint0_linear)" stroke="#44F1A6"/>
<path opacity="0.15" d="M105 120.5L207 180.322M105 120.5L3.5 180.107M105 120.5L105 4" stroke="#44F1A6"/>
<defs>
<linearGradient id="paint0_linear" x1="105" y1="4.5" x2="105" y2="114" gradientUnits="userSpaceOnUse">
<stop stop-color="#182922"/>
<stop offset="1" stop-color="#182922" stop-opacity="0"/>
</linearGradient>
</defs>
</svg>
