<svg width="19" height="19" viewBox="0 0 19 19" fill="none" xmlns="http://www.w3.org/2000/svg"><path d="M9.5 19C14.7467 19 19 14.7467 19 9.5C19 4.25329 14.7467 0 9.5 0C4.25329 0 0 4.25329 0 9.5C0 14.7467 4.25329 19 9.5 19Z" fill="#94FEBF"></path> <path d="M9.10373 12.7471C8.59601 13.2589 8.05842 13.7405 7.5507 14.2523C7.37151 14.4329 7.16244 14.5232 6.92352 14.5232C6.74432 14.5232 6.65472 14.4329 6.59499 14.2824C6.20673 13.0783 5.81848 11.8441 5.43022 10.64C5.40035 10.5196 5.34062 10.4594 5.22116 10.4293C4.29531 10.1584 3.39934 9.85735 2.47349 9.55633C2.32416 9.49612 2.2047 9.46602 2.05537 9.37571C1.87617 9.2553 1.84631 9.04459 1.99564 8.89408C2.14497 8.74357 2.32416 8.62316 2.53322 8.56296C3.66813 8.11142 4.77317 7.69 5.90807 7.23846C8.77521 6.09458 11.6423 4.98081 14.5095 3.86703C15.0471 3.65631 15.4652 3.95733 15.4054 4.55938C15.3756 4.9507 15.286 5.31193 15.1964 5.67315C14.5692 8.62316 13.942 11.5732 13.3447 14.5232C13.1954 15.2155 12.7175 15.3961 12.1501 14.9747C11.1943 14.2523 10.2386 13.5599 9.28293 12.8375C9.19333 12.8074 9.1336 12.7773 9.10373 12.7471ZM6.95338 13.6201H6.98325C6.98325 13.59 6.98325 13.5599 7.01311 13.5298C7.07285 12.8676 7.13258 12.2053 7.19231 11.513C7.19231 11.3625 7.25204 11.2721 7.37151 11.1517C8.26748 10.3691 9.1336 9.55633 9.99971 8.74357C10.9853 7.87061 11.941 6.96755 12.9266 6.09458C12.9863 6.03438 13.0162 5.94407 13.046 5.88387C12.9564 5.88387 12.8668 5.82367 12.7772 5.85377C12.6578 5.88387 12.5682 5.94407 12.4487 6.00428C10.2984 7.35887 8.14802 8.74357 5.99767 10.0982C5.87821 10.1885 5.84834 10.2487 5.90807 10.3691C6.0574 10.8206 6.20673 11.3022 6.35606 11.7538C6.53526 12.3859 6.74432 13.0181 6.95338 13.6201Z" fill="#000403" class="no-hover"></path></svg>