<svg width="19" height="19" viewBox="0 0 19 19" fill="none" xmlns="http://www.w3.org/2000/svg"><path d="M9.5 19C14.7467 19 19 14.7467 19 9.5C19 4.25329 14.7467 0 9.5 0C4.25329 0 0 4.25329 0 9.5C0 14.7467 4.25329 19 9.5 19Z" fill="#94FEBF"></path> <path d="M15.8333 5.24674C15.389 5.49207 14.8474 5.64018 14.3521 5.6911C14.8937 5.34395 15.2918 4.80239 15.4862 4.159C14.9909 4.45523 14.4493 4.70055 13.8059 4.84867C13.3107 4.30711 12.6719 3.95996 11.9313 3.95996C10.501 3.95996 9.31609 5.19583 9.31609 6.77422C9.31609 6.97325 9.31609 7.21857 9.36701 7.41761C7.19614 7.32041 5.2706 6.18174 3.98382 4.50615C3.7385 4.89959 3.63666 5.39486 3.63666 5.93642C3.63666 6.92234 4.08102 7.76476 4.7707 8.25541C4.32634 8.25541 3.9329 8.10729 3.58575 7.90825V7.95917C3.58575 9.29224 4.47446 10.4263 5.65941 10.7225C5.46038 10.7734 5.21506 10.8197 4.96973 10.8197C4.82161 10.8197 4.62258 10.8197 4.47446 10.7688C4.82161 11.9028 5.75661 12.6943 6.89528 12.6943C6.00656 13.4349 4.87253 13.8793 3.68758 13.8793C3.48855 13.8793 3.29414 13.8793 3.04419 13.8284C4.17822 14.6199 5.56221 15.1105 7.0434 15.1105C11.8341 15.1105 14.4493 10.866 14.4493 7.16303C14.4493 7.06583 14.4493 6.91771 14.4493 6.81588C15.0464 6.32986 15.4908 5.83922 15.8333 5.24674Z" fill="#000403" class="no-hover"></path></svg>