<svg width="30" height="31" viewBox="0 0 30 31" fill="none" xmlns="http://www.w3.org/2000/svg">
<path fill-rule="evenodd" clip-rule="evenodd" d="M11.668 17.3631C5.3859 18.7731 1 24.1486 1 31H0C0 24.0898 4.19611 18.5616 10.3167 16.687C7.72799 15.1064 6 12.255 6 9C6 4.02944 10.0294 0 15 0C19.9706 0 24 4.02944 24 9C24 12.255 22.272 15.1064 19.6833 16.687C25.8039 18.5616 30 24.0898 30 31H29C29 24.1486 24.6141 18.7731 18.332 17.3631C17.3015 17.774 16.1771 18 15 18C13.8229 18 12.6985 17.774 11.668 17.3631ZM18.2338 16.3195C21.0412 15.0773 23 12.2674 23 9C23 4.58172 19.4183 1 15 1C10.5817 1 7 4.58172 7 9C7 12.2674 8.95883 15.0773 11.7662 16.3195C12.755 16.757 13.8491 17 15 17C16.1509 17 17.245 16.757 18.2338 16.3195Z" fill="#44F1A6"/>
</svg>
